# xmcd CD database file
#
# Track frame offsets:
#    150
#    14874
#    28634
#    41617
#    53224
#    66861
#    81075
#    94795
#    108925
#    119831
#    131965
#    145889
#    162383
#    176517
#    188803
#    201654
#    212784
#    225730
#    238401
#    250189
#    265153
#    276189
#    289270
#    304795
#    318037
#
# Disc length: 4432 seconds
#
# Submitted via: cddb-tool 0.4.7
#
#blues,classical,country,data,folk,jazz,newage,reggae,rock,soundtrack,misc
#CATEGORY=blues
# Revision: 0
# Processed by: cddbd v1.5.2PL0 Copyright (c) Steve Scherf et al.
#
DISCID=85114e19
DTITLE=Various Artist - Acoustic Blues Cd 2
DYEAR=2012
DGENRE=Blues
TTITLE0=Arthur 'Big Boy' Crudup - Death Valley Blues
TTITLE1=Sonny Terry and Brownie McGhee - Better Day
TTITLE2=Robert Petway - Catfish Blues
TTITLE3=Smokey Hogg - Little School Girl
TTITLE4=John Lee Hooker - Water Boy
TTITLE5=Memphis Slim - Call Before You Go Home
TTITLE6=Big Bill Broozy - Key To The Highway
TTITLE7=Lightnin' Hopkins - Sad News From Korea
TTITLE8=Jimmy Witherspoon - Spoon's Blues
TTITLE9=Blind Boy Fuller - Pistol Slapper Blues
TTITLE10=Robert Lockwood Jr - Little Boy Blue
TTITLE11=Tommy Johnson - Canned Heat Blues
TTITLE12=Blind Willie McTell - Stomp Down Rider
TTITLE13=Memphis Minnie - Dirty Mother For You
TTITLE14=Tommy McClennan - Highway No.51
TTITLE15=Johnny Howard - Dark Night Blues
TTITLE16=Joe Hill Louis - Joe's Jump
TTITLE17=Big Joe Williams - I'm Getting Wild About Her
TTITLE18=Smokey Hogg - Misery Blues
TTITLE19=Curley Weaver - Oh Lawdy Mana
TTITLE20=Robert Henry - Old Battle Ax
TTITLE21=Brownie McGhee - It Must Be Love
TTITLE22=Mississippi John Hurt - Frankie And Johnny
TTITLE23=Robert Lockwood Jr - Black Spider Blues
TTITLE24=Jimmy Witherspoon and Wilbur De Paris - Trouble In Mind
EXTD=50 Raw Blues Classics On 2CDs
EXTT0=
EXTT1=
EXTT2=
EXTT3=
EXTT4=
EXTT5=
EXTT6=
EXTT7=
EXTT8=
EXTT9=
EXTT10=
EXTT11=
EXTT12=
EXTT13=
EXTT14=
EXTT15=
EXTT16=
EXTT17=
EXTT18=
EXTT19=
EXTT20=
EXTT21=
EXTT22=
EXTT23=
EXTT24=
PLAYORDER=
